/* XPM */
static char *_f1ec947a45f4436c5b0d557c4ea11fbTC8OEByQIX0skEnw[] = {
/* columns rows colors chars-per-pixel */
"57 61 187 2 ",
"   c None",
".  c #040301",
"X  c #0A0602",
"o  c #0D0904",
"O  c #0E0C0A",
"+  c #130D06",
"@  c #120D09",
"#  c #180D03",
"$  c #1C1106",
"%  c #15100D",
"&  c #1A120B",
"*  c #1F180E",
"=  c #171310",
"-  c #1A1512",
";  c #1D1915",
":  c #1E1D1C",
">  c #261404",
",  c #291605",
"<  c #2B1906",
"1  c #21160B",
"2  c #24190D",
"3  c #2A1C0C",
"4  c #251807",
"5  c #311B07",
"6  c #321D09",
"7  c #211B15",
"8  c #2B1E10",
"9  c #221D19",
"0  c #34210D",
"q  c #3B240D",
"w  c #2D2213",
"e  c #25201B",
"r  c #2A241D",
"t  c #332413",
"y  c #3A2611",
"u  c #3C2913",
"i  c #3C2D1A",
"p  c #362916",
"a  c #3D321F",
"s  c #272521",
"d  c #2A2520",
"f  c #2D2B25",
"g  c #2C2B29",
"h  c #342D26",
"j  c #312F2A",
"k  c #35332D",
"l  c #383630",
"z  c #3B3A33",
"x  c #3A3938",
"c  c #40270F",
"v  c #42290F",
"b  c #442C13",
"n  c #492E13",
"m  c #432F19",
"M  c #453017",
"N  c #4C3216",
"B  c #46321A",
"V  c #4C351A",
"C  c #4D391F",
"Z  c #513417",
"A  c #523619",
"S  c #553A1C",
"D  c #5A3D1E",
"F  c #4D3B22",
"G  c #463821",
"H  c #593E21",
"J  c #553D21",
"K  c #413A35",
"L  c #433E3A",
"P  c #5E401F",
"I  c #564125",
"U  c #5D4121",
"Y  c #5B482A",
"T  c #44433B",
"R  c #48473E",
"E  c #49483E",
"W  c #644422",
"Q  c #694723",
"!  c #664825",
"~  c #6B4A26",
"^  c #644B2B",
"/  c #6C4D29",
"(  c #714E29",
")  c #6D522E",
"_  c #73522C",
"`  c #79562E",
"'  c #7A582F",
"]  c #6B5531",
"[  c #625131",
"{  c #7C5731",
"}  c #735932",
"|  c #7C5B33",
" . c #7F6136",
".. c #4D4A43",
"X. c #474544",
"o. c #504E44",
"O. c #524E4A",
"+. c #535147",
"@. c #555349",
"#. c #58564B",
"$. c #5B594E",
"%. c #5D5B50",
"&. c #5C5A5A",
"*. c #615F53",
"=. c #615C58",
"-. c #636155",
";. c #676558",
":. c #69675A",
">. c #6D6B5D",
",. c #686663",
"<. c #706E60",
"1. c #716D69",
"2. c #747263",
"3. c #797767",
"4. c #7C7A6A",
"5. c #7B7772",
"6. c #7E7B77",
"7. c #825C34",
"8. c #855E38",
"9. c #826035",
"0. c #866539",
"q. c #88673A",
"w. c #84683D",
"e. c #8C6B3C",
"r. c #926D3E",
"t. c #916E40",
"y. c #947442",
"u. c #9C7946",
"i. c #817F6E",
"p. c #887F74",
"a. c #827D79",
"s. c #9E804C",
"d. c #82806F",
"f. c #848271",
"g. c #898675",
"h. c #8B8977",
"j. c #8B887A",
"k. c #908E7B",
"l. c #93917E",
"z. c #8A8784",
"x. c #928E88",
"c. c #969480",
"v. c #9C9588",
"b. c #959392",
"n. c #A39E9C",
"m. c #A5A38D",
"M. c #ACAA93",
"N. c #A5A497",
"B. c #B5B39B",
"V. c #B9B69E",
"C. c #A6A4A2",
"Z. c #ABAAA8",
"A. c #B1ACA4",
"S. c #BDBBA2",
"D. c #B9B6B3",
"F. c #BAB9B8",
"G. c #C1BFA5",
"H. c #C2BEBA",
"J. c #C3C1A7",
"K. c #C5C3A9",
"L. c #C8C7AB",
"P. c #C9C7AC",
"I. c #C8C7AB",
"U. c #CBCAAE",
"Y. c #CFCEB1",
"T. c #D0CFB2",
"R. c #D1D1B3",
"E. c #D3D2B5",
"W. c #D7D4B8",
"Q. c #D9D6BA",
"!. c #D9D6BA",
"~. c #DDDBBD",
"^. c #CBCAC8",
"/. c #D0CECB",
"(. c #D4D0CE",
"). c #DEDDDD",
"_. c #D9D7D5",
"`. c #E1DFC0",
"'. c #E3DFDC",
"]. c #E6E4C4",
"[. c #EAEAC8",
"{. c #F0EECD",
"}. c #F1F0CE",
"|. c #E4E1DD",
" X c #FAFAD6",
".X c #E6E5E3",
"XX c #E9E9E9",
/* pixels */
"                                            @.R 2.!.].}. XL.V.G.L.2.4.l.4.                                        ",
"                                      j +.<.;.U.W.4.3.h.h.>.2.*.;.P.~.Q.>.z k                                     ",
"                                  2.*.l.z 2.L.:.3.2.3.3.4.>.2.:.>.-.3.-.J.z {.].~.z                               ",
"                              ..o.f.].{.4.k 2.4.f.d.2.2.g.<.2.>.>.-.2.<.z S.~.f.l.Q.Y.k                           ",
"                          E +.3.W.!.f.4.S.g d.i.2.4.2.;.f.<.2.<.>.>.$.$.k U.d.2.3.>.2.U.+.                        ",
"                        k <.E.~.4.f.3.f.>.K.k >.2.3.4.4.2.4.$.>.-.-.$.k K.S.<.2.4.3.d.>.U.k                       ",
"                    #.#.>.j R.i.3.2.:.3.2.W.j j $.<.:.2.;.<.:.;.$.-.j k S.%.2.>.d.3.2.2.k >.d.                    ",
"                  #.g.Q.L.k 4.4.i.3.;.f.3.<.J.k @.<.k z s K k f -.-.g %.K.2.d.;.3.4.3.4.g >.!.;.                  ",
"                ..<.R.~.<.4.z 3.i.3.2.<.;.-.S.k z z o o . @ o o k j j =.G.d.d.:.>.3.<.z 2.Y.g.~.+.                ",
"              R >.Y.3.3.4.>.k ;.4.<.;.-.-.l j o o + + + . * & & $ + & k l 4.:.<.>.2.$.k Q.>.2.d.W.R               ",
"            z ;.P.f.2.4.2.>.3.k <.;.<.z k X % % $ & 2 * . p 8 2 2 2 2 2 + l k 2.-.3.k ~.<.2.2.3.3.Y.T             ",
"          T #.U.2.2.3.2.<.2.3.z $.l z + & + 2 8 8 w t w . C p p p t p i & y 2 k l $.k.L.<.2.4.d.2.<.!.T           ",
"          T B.Y.2.2.<.2.3.<.-.3.l o + * w + p p u i B i . Y F C M M B C 3 B t 2 * l >.<.2.2.-.3.3.;.3.J.z         ",
"        k z -.%.-.>.2.2.>.>.-.k + & 2 3 i 2 C B V B S C X } U U S I I Y u I i p w 2 k :.;.<.>.>.<.-.<.U.l         ",
"      ..Q.k k #.>.>.;.>.>.-.j @ $ 2 w t F y I J J S Y U X | Y ! W W ! ) B } S B b w w k >.*.:.>.-.%.#.z z +.      ",
"      R U.U.2.k l :.@.%.>.l & & 2 w p M Y y ^ Y W W ) ! o q./ / ~ _ } 0.B  .! P C i t w l 2.-.-.$.k h.R.W.+.      ",
"      +.L.2.R.4.4.k o.#.z + 2 2 w u M V } i ` / ! / ` ^ o e._ _ ( / ` q.V y.~ ! H M m i $ k $.%.z `.W.>.<.W...    ",
"    #.L.3.>.>.R.[.<.l L & @ w 3 w M B J w.m _ ! ~ _ ' / o e._ _ ( ( ( 7.V s.~ ~ ! V N F 1 e z l Q.g.4.d.2.U.T     ",
"    +.K.<.2.>.;.4.E.l o ; $ p t p V J U w.b { ~ / _ ' ) o 0._ _ _ / ~ 8.M u._ _ _ H J I 2 t + k <.4.2.4.2.Y.*.    ",
"    R.i.2.4.:.4.4.<.k @ w $ i p m J I W e.m 0.~ _ ` ' ) o e._ / { ( ~ 0.N y._ _ _ W J ^ 3 a $ k :.3.4.4.>.4.].E   ",
"  $.~.l.d.<.3.d.i.z o & p 4 V i N H W ^ e.n 0.~ ( ` ' ] X r.P ! ` ( ! 0.b y.( ( _ ! W } t G 7 + k >.d.<.:.2.W.#.  ",
"  +.R.4.4.>.-.;.2.z + & h 8 I V A ! ! ~ t.v q.~ ( ` ` ] o r.S W { ( ~ 0.b t.( ( _ Q ~ 9.i Y 3 @ k ;.<.*.-.:.3.W.@.",
"  k 2.<.3.-.$.<.$.z + * G 3 Y J H ^ ! ( q.b q.! ( ' ( } o r.C W ` ( ~ 0.b t.( ( / ! ~ 9.u [ 8 + l -.>.$.*.:.<.K.z ",
"  Y.k k k $.+.<.z + + 2 F 8 / H U ! W W r.v q.! ( ~ ! } o y.A P ~ ( ~ 0.c r.W W / ! Q 0.u ^ t $ + k #.E +.z z i.R ",
"h.4.E.J.k k k k l + % 8 Y 6 ` U W W Q W e.b y.W ~ Q ! } o y.S W W ~ W y.b t.W W ! W W 8.q ] t & + k l k >.}.~.`.>.",
"U.>.3.3.U.L.-.k k + $ t ^ t 8.W W W W W ` b u.! Q W ~ t.o y.A W W ! ! y.v { Q W W W ! 8.y ] p 1 + k z K.Y.f.i.4.2.",
"U.2.4.h.h.2.K.g o @ 1 8 m b A A Z Z S Z S S ! W P P U I X | A D U W W ! S H Z A A V A V y M t - + z k S.<.3.<.f.3.",
"E.:.:.2.3.:.$.f g X.,.z.Z.(.)..X|.'.'.D.D.D./.A.B.x.5.:.o 6.5.5.x.A.A./.D.D.D.'.'.|.'./.F.N.6.&.z : k B.<.2.<.4.2.",
"Y.>.2.i.f.>.>.l . O = - 9 9 9 9 9 7 r 9 e d d d d e ; @ . %.9 - 9 f r r r 9 9 r 7 7 9 9 ; ; = O o . k L.>.<.f.2.3.",
"[.2.2.4.3.>.3.k O % - g C.z.7 7 r h h K n.=.d ; ; O O o . O.= O @ 7 7 r =.n.K h h r ; ; 5.z.s = O X z U.%.-.3.>.:.",
"~.*.:.$.$.>.:.k X X o @ K ..; - = + @ @ K ..- = % - ; @ . X.; ; = % = - O.K @ @ @ = = - x g O o . . k U.4.-.>.<.-.",
"U.$.+.2.%.-.$.l . . X X o o @ + + @ @ @ @ % & & & % 7 O . +.- ; & = & & % + + @ + @ @ + O X . . . . k K.>.;.f.+.$.",
"J.$.#.2.@.-.T k $ 3 0 v b b M n N N n n N v n n N N N q . V V N N N n n v n n n n N n v y q 6 4 $ o k M.:.*.<.T +.",
"j l z z k l k k 3 0 b Z Z u S S D D S S D b ~ n b b b u . P A N u n M / n P S P S P S N q u y 8 $ + z f k k f k l ",
"R.U.].K.Y.R.;.l u V D P 7.D 9.( ( Q W ~ 8.Z _ _ W ( ~ P o e.( ~ ( W _ _ Z 9.Q W Q ( (  .V ! M u w $ k K.~.!.L.L.Q.",
"W.2.4.4.l.<.-.k p B S P 7.A 9.W Q W Q ( ' N 7._ W ( _ P o e._ ) ( W (  .n ` ( Q W Q W ' M ) M y w & l U.4.4.2.3.d.",
"E.4.-.:.<.<.:.k u V S D ' b 9.Q Q Q Q ~ ' n 7.~ W Q _ P o e.P ! Q W ~ 9.n ' Q Q Q Q W | u ! m y w $ z S.*.-.2.d.2.",
"K.2.2.<.3.;.-.l u M V D | v | Q ~ Q ~ ( ' N 9.~ W W _ P o r.P P W W ~  .Z ' ( ( ~ ~ P | q ) m y 3 $ l R.<.3.3.3.4.",
"U.$.<.2.-.$.>.k u m V D | v 7.Q ~ W ~ ~ 7.N 9./ Q W ( P o r.I P P Q ~ 9.n ' ( Q W Q W ' q / m 0 2 $ k Y.>.3.2.<.:.",
"W.;.-.$.*.3.3.k u m B U | b 9.W Q W ~ W 7.Z 7.Q ~ W Q P o r.Z P Q Q Q  .Z 9.Q Q W Q W | u ) M t 2 & k Q.d.-.*.>.-.",
"P.#...2.$.4.2.j 0 m N H | b 7.Q W P ~ P 7.Z 8.Q ~ P W P o r.S S W Q Q 7.Z 7.P ~ W W P | q ) M y 2 $ k S.-.$.2.o.>.",
"V.#...-.-.3.R k 0 b b D 7.u | W W W ( P 7.n 9.~ Q W W D o r.S S W Q Q 8.n 7.P ( P W W | q ) m t w + k v.-.$.*.o.*.",
"k l j j k l l l 0 m b N ~ 0 ) Q P W ~ P ( 5 { P D D W W X | D N D P W ` 5 ( P Q W P W ~ 6 U y 6 2 $ l l k f j j k ",
"L.K.R.U.E.G.%.k 3 0 q u n 0 b N N N N N N c H S Z Z Z n X n S Z Z Z Z P c Z N N N M Z v 6 u 0 3 $ % z L.R.R.Y.Y.L.",
"U.>.4.d.4.<.#.k b.C.F.(.'.XXXXXXXXXX(._.^.H.v.p.x.a.z.1.X ,.a.z.f.x.p.v.H.^.'.(.XXXXXX)._.^.C.x.1.X.x J.-.3.<.3.2.",
"E.>.4.3.<.3.%.k % = ; 9 9 e 9 9 9 7 r 9 9 d d d f 7 9 - . ,.O.; ; f d d d 9 7 r ; 9 9 9 9 ; = = O o z L.<.>.;.3.4.",
"U.2.<.>.3.2.,.k - : 9 j C.z.7 7 r h h K n.=.r 7 ; 9 - O . ..9 - ; - - d =.n.K h j r - ; a.b.g - % O k T.2.2.g.2.4.",
"W.>.f.2.:.%.;.k o X o + l o.- - = @ @ + K ..- = @ - @ @ . X.9 = - % = = ..x @ @ @ = - = X.k O o X . j K.>.<.d.2.-.",
"G.>.d.;.$.3.>.k . X X X o o + + + @ + + + % & - & % = O . ; = = @ = - % % + + + @ @ + + o X X X . . j S.2.;.;.<.$.",
"J.$.$.3.-.:.$.k # > > < 6 , 6 6 5 5 5 5 6 , , , , 5 5 , X $ 6 5 3 , , , , 5 5 6 6 6 5 5 , 5 > $ # o k P.>.%.>.R ;.",
"Y.$.o.$.@.:.T f 4 < 0 3 q 5 q v c 0 q v c , q v c c n 6 X , c c v q v q , q b 6 6 v v q , 6 < 3 $ + j M.>.@.2.X.+.",
"z z z k k k f k 0 y q b P 5 / N n A A n S 5 H N A Z Z A X 6 W N A S N H 5 D N A Z n N Q , H y 0 3 $ k l h k l l k ",
"V.V.S.L.J.J.>.z t q u b D c W n N Z Z n P n W n Z Z N A o v W Z Z Z N P n P n Z A n n W q S y 6 3 $ z J.S.V.V.S.B.",
"B.>.$.-.>.;.-.k 3 y u v D c Q n n Z Z N W v W N N Z n Z o v W n Z N N W v W N Z Z n b W q J y t 3 $ l V.$.$.%.%.>.",
"M.*.@.$.;.-.-.l 0 y q b D v W n n Z Z N W v W N N Z Z S o 6 W N Z n N Q c W N Z Z n b W q A y 0 3 1 k S.%.#.%.+.:.",
"m.o.+...$.$.+.z 0 q y b S q Q n n Z Z N W 6 D N N Z Z S o 6 W Z Z n Z P 6 P Z Z Z n b W q A y 0 w $ k m.@.*.-.#.R ",
"l.E @.T E @.o.l 3 0 q u D v W n n n Z N W 5 A Z Z Z Z A X < W Z Z Z Z A 5 W Z Z v n n P q H q 6 3 $ l m.#.-.$.$.T ",
"l.z E E z T E j 3 y q u Z c Q S N N Z Z W , n Z n n Z Z X , W Z n n Z n > W Z Z n Z A W q m q 8 3 $ z M.R R ....T ",
"l.T z E l T E f 3 0 0 u S v P Z n n Z N W , n Z n N n Z X > D n n n Z n , W Z Z N n Z D q A y 6 3 $ k c.z k z z T ",
"k.k f z k z k f 3 0 0 v A q ~ S n N N N Z , n Z N v n N X > D n v n Z Z , A n Z n n A Q 6 A c 6 3 $ k k.T g z k k ",
"k f k k z k k l 3 0 q b S 0 ~ S n n n n Z , c N n v v q X # v n v Z n v , Z n n n n A ~ 6 Z v 0 3 $ k k l k z k k "
};
